#!OML:ASF F:\VICON\USERDATA\INSTALL\rory3\rory3.ASF
:FULLY-SPECIFIED
:DEGREES
97
root 0.125171 17.8397 -13.5032 -1.92275 -0.0955245 -1.64266
lowerback 6.76402 -1.0652 0.905165
upperback 1.31894 -1.26322 3.3612
thorax -2.3743 -0.628765 3.07209
lowerneck -14.8844 -2.28395 -9.19139
upperneck 21.788 -1.89257 4.22443
head 9.4713 -1.17642 2.76542
rclavicle -2.43511e-015 3.97569e-014
rhumerus -31.7628 -14.819 -75.8329
rradius 25.496
rwrist 9.86571
rhand -13.6409 17.4219
rfingers 7.12502
rthumb 12.4754 -12.1857
lclavicle -2.43511e-015 3.97569e-014
lhumerus -30.8214 0.583137 86.588
lradius 34.8098
lwrist -10.7384
lhand -15.0379 23.3991
lfingers 7.12502
lthumb 11.1282 53.084
rfemur -13.4258 5.99945 27.1784
rtibia 34.2634
rfoot -13.4297 -12.5501
rtoes -1.51987
lfemur -18.5048 2.35523 -17.3084
ltibia 62.9876
lfoot -1.41027 -6.39902
ltoes -11.8909
98
root 0.114697 17.8329 -13.3267 -1.97934 -0.367435 -1.80776
lowerback 6.9354 -0.89418 1.11953
upperback 1.29219 -1.01537 3.29713
thorax -2.5139 -0.506007 2.86756
lowerneck -15.0443 -2.34973 -9.17171
upperneck 21.9757 -1.993 4.29533
head 9.57483 -1.21546 2.77684
rclavicle -6.11263e-015 3.97569e-015
rhumerus -31.4572 -14.1584 -76.2502
rradius 25.9289
rwrist 8.91253
rhand -13.5757 17.2928
rfingers 7.12502
rthumb 12.5382 -12.311
lclavicle -6.11263e-015 3.97569e-015
lhumerus -31.0961 0.885795 86.5192
lradius 34.3367
lwrist -11.0169
lhand -16.3568 19.8959
lfingers 7.12502
lthumb 9.85594 49.6453
rfemur -12.6225 6.15023 27.5194
rtibia 34.1947
rfoot -13.8178 -12.7942
rtoes -3.08862
lfemur -19.5355 2.8412 -17.119
ltibia 62.5481
lfoot -2.23426 -5.84465
ltoes -10.4476
99
root 0.106557 17.8196 -13.1576 -1.93162 -0.488878 -2.03103
lowerback 7.01147 -0.754332 1.38289
upperback 1.23881 -0.806149 3.26085
thorax -2.6243 -0.4033 2.66498
lowerneck -14.7201 -2.42713 -9.07134
upperneck 21.6563 -2.15024 4.281
head 9.41224 -1.27909 2.73123
rclavicle -1.25731e-014 1.19271e-014
rhumerus -31.1828 -13.4652 -76.6088
rradius 26.5392
rwrist 8.17487
rhand -13.4586 17.2335
rfingers 7.12502
rthumb 12.6511 -12.3634
lclavicle -1.25731e-014 1.19271e-014
lhumerus -31.4566 1.0716 86.4907
lradius 33.9101
lwrist -11.0281
lhand -14.3807 25.4032
lfingers 7.12502
lthumb 11.762 55.053
rfemur -11.9286 6.24061 27.8785
rtibia 34.1464
rfoot -14.5543 -12.8233
rtoes -2.09937
lfemur -20.7279 3.0833 -16.9042
ltibia 61.9846
lfoot -2.94361 -5.34889
ltoes -9.95341
100
root 0.0957583 17.7993 -12.9926 -1.7934 -0.588381 -2.58193
lowerback 7.02081 -0.651045 1.91296
upperback 1.07863 -0.618964 3.37334
thorax -2.80629 -0.313873 2.46852
lowerneck -14.0827 -2.41361 -9.19027
upperneck 21.3126 -2.1694 4.32245
head 9.17737 -1.29327 2.76023
rclavicle 2.48481e-016 2.46493e-014
rhumerus -31.1721 -12.6156 -76.8627
rradius 27.2699
rwrist 7.45847
rhand -13.415 17.0515
rfingers 7.12502
rthumb 12.6931 -12.5427
lclavicle 2.48481e-016 2.46493e-014
lhumerus -32.0575 1.52193 86.4952
lradius 33.6209
lwrist -11.2007
lhand -16.5143 18.7938
lfingers 7.12502
lthumb 9.70398 48.5502
rfemur -11.3826 6.49088 28.6189
rtibia 34.1378
rfoot -15.0298 -13.0391
rtoes -1.31607
lfemur -21.9922 3.36694 -16.3098
ltibia 61.3404
lfoot -3.77774 -5.05071
ltoes -10.0971
101
root 0.0819177 17.7806 -12.8253 -1.79294 -0.679469 -2.81252
lowerback 7.16171 -0.560351 2.11065
upperback 1.12414 -0.478882 3.37421
thorax -2.84355 -0.246088 2.34669
lowerneck -14.4462 -2.46071 -9.16021
upperneck 21.4748 -2.19562 4.27038
head 9.3028 -1.30779 2.73496
rclavicle 5.61567e-015 1.59028e-015
rhumerus -30.5375 -12.264 -77.1839
rradius 27.6342
rwrist 6.99935
rhand -13.4024 16.8752
rfingers 7.12502
rthumb 12.7053 -12.7183
lclavicle 5.61567e-015 1.59028e-015
lhumerus -32.2641 1.8758 86.4143
lradius 33.4051
lwrist -11.3858
lhand -14.5643 22.9355
lfingers 7.12502
lthumb 11.585 52.5953
rfemur -10.7374 6.68277 29.0403
rtibia 34.1849
rfoot -15.417 -13.3541
rtoes -0.953047
lfemur -22.927 3.6853 -16.0778
ltibia 60.5076
lfoot -4.49087 -4.64722
ltoes -10.0283
102
root 0.0733975 17.751 -12.6651 -1.83079 -0.650472 -2.99121
lowerback 7.40078 -0.533481 2.352
upperback 1.25622 -0.42027 3.32988
thorax -2.84385 -0.219313 2.1612
lowerneck -15.0538 -2.52044 -9.2355
upperneck 21.6294 -2.22652 4.37821
head 9.4745 -1.31304 2.78176
rclavicle 9.64106e-015 -7.15625e-015
rhumerus -29.7398 -11.795 -77.5743
rradius 27.9306
rwrist 6.34975
rhand -13.5755 17.1646
rfingers 7.12502
rthumb 12.5384 -12.4392
lclavicle 9.64106e-015 -7.15625e-015
lhumerus -32.0903 2.32086 86.266
lradius 32.8086
lwrist -11.5415
lhand -15.7582 21.8226
lfingers 7.12502
lthumb 10.4334 51.5437
rfemur -10.0839 6.55387 29.3712
rtibia 34.1828
rfoot -15.9769 -13.6099
rtoes -1.80419
lfemur -23.8084 3.84737 -15.9563
ltibia 59.5137
lfoot -4.90161 -4.00547
ltoes -9.47808
103
root 0.0655971 17.7284 -12.4984 -1.75281 -0.681894 -3.16082
lowerback 7.43828 -0.464106 2.55205
upperback 1.26522 -0.311375 3.30744
thorax -2.85884 -0.167071 2.01521
lowerneck -14.9238 -2.55645 -9.31307
upperneck 21.3672 -2.29154 4.48752
head 9.36545 -1.33419 2.82142
rclavicle 5.96354e-016 -4.21423e-014
rhumerus -29.3768 -11.0371 -77.8991
rradius 28.5576
rwrist 5.60496
rhand -13.7896 17.5065
rfingers 7.12502
rthumb 12.3319 -12.1098
lclavicle 5.96354e-016 -4.21423e-014
lhumerus -32.2057 2.80802 86.1692
lradius 32.276
lwrist -11.3116
lhand -19.7819 18.2609
lfingers 7.12502
lthumb 6.55032 48.1396
rfemur -9.5181 6.43581 29.6723
rtibia 34.1454
rfoot -16.4914 -13.8409
rtoes -3.54728
lfemur -24.7113 4.01174 -15.8441
ltibia 58.2634
lfoot -5.114 -3.20964
ltoes -7.50313
